<svg id="svgQrWrapper" viewBox="0 0 300 300" xmlns="http://www.w3.org/2000/svg" xmlns:xlink="http://www.w3.org/1999/xlink" width="300" height="300" style="width: 100%; height: 100%; background-color: rgb(255, 255, 255);"><svg fill="#9C3AAF" xmlns="http://www.w3.org/2000/svg" width="300" height="300" viewBox="0 0 300 300"><path d="M55.59,245.23H49.28a5.48,5.48,0,0,0-5.47,5.47v34a5.48,5.48,0,0,0,5.47,5.47h6.31Z"/><path d="M251.65,245.23H125v44.91H251.65a5.49,5.49,0,0,0,5.47-5.47v-34A5.49,5.49,0,0,0,251.65,245.23Z"/><path d="M113.42,235.58H67A8.45,8.45,0,0,0,58.57,244v46.4A8.45,8.45,0,0,0,67,298.88h46.4a8.45,8.45,0,0,0,8.45-8.45V244A8.45,8.45,0,0,0,113.42,235.58Zm-10.78,27.31V285a4,4,0,0,1-3.93,3.93h-17A4,4,0,0,1,77.8,285V250.42a4,4,0,0,1,3.94-3.93h17a4,4,0,0,1,3.93,3.93Z"/><path d="M90.18,282.07a2.57,2.57,0,0,0-2.59,2.59,2.59,2.59,0,1,0,2.59-2.59Z"/><path d="M86.91,252.44h6.53a1.83,1.83,0,0,0,1.82-1.83,1.89,1.89,0,0,0-1.82-1.82H87a1.85,1.85,0,0,0-1.92,1.82A1.83,1.83,0,0,0,86.91,252.44Z"/><polygon points="80.58 280.44 99.67 280.44 99.67 255.12 80.58 254.93 80.58 280.44"/><g transform="translate(45, 11)scale(0.7)" fill="none"><svg width="300" height="300"><style>.background-color{ fill: #fff; }.dot-color{ fill: #9C3AAF; }.corners-square-color-0-0{ fill: #9C3AAF; }.corners-dot-color-0-0{ fill: #9C3AAF; }.corners-square-color-1-0{ fill: #9C3AAF; }.corners-dot-color-1-0{ fill: #9C3AAF; }.corners-square-color-0-1{ fill: #9C3AAF; }.corners-dot-color-0-1{ fill: #9C3AAF; }</style><defs/><g class="dot-color"><circle cx="5.5" cy="95.5" r="3" transform="rotate(0,5.5,95.5)"/><circle cx="5.5" cy="113.5" r="3" transform="rotate(0,5.5,113.5)"/><circle cx="5.5" cy="149.5" r="3" transform="rotate(0,5.5,149.5)"/><circle cx="5.5" cy="185.5" r="3" transform="rotate(0,5.5,185.5)"/><circle cx="5.5" cy="194.5" r="3" transform="rotate(0,5.5,194.5)"/><circle cx="5.5" cy="212.5" r="3" transform="rotate(0,5.5,212.5)"/><circle cx="5.5" cy="221.5" r="3" transform="rotate(0,5.5,221.5)"/><circle cx="14.5" cy="86.5" r="3" transform="rotate(0,14.5,86.5)"/><circle cx="14.5" cy="104.5" r="3" transform="rotate(0,14.5,104.5)"/><circle cx="14.5" cy="149.5" r="3" transform="rotate(0,14.5,149.5)"/><circle cx="14.5" cy="167.5" r="3" transform="rotate(0,14.5,167.5)"/><circle cx="14.5" cy="176.5" r="3" transform="rotate(0,14.5,176.5)"/><circle cx="14.5" cy="185.5" r="3" transform="rotate(0,14.5,185.5)"/><circle cx="14.5" cy="194.5" r="3" transform="rotate(0,14.5,194.5)"/><circle cx="14.5" cy="212.5" r="3" transform="rotate(0,14.5,212.5)"/><circle cx="23.5" cy="95.5" r="3" transform="rotate(0,23.5,95.5)"/><circle cx="23.5" cy="104.5" r="3" transform="rotate(0,23.5,104.5)"/><circle cx="23.5" cy="122.5" r="3" transform="rotate(0,23.5,122.5)"/><circle cx="23.5" cy="149.5" r="3" transform="rotate(0,23.5,149.5)"/><circle cx="23.5" cy="167.5" r="3" transform="rotate(0,23.5,167.5)"/><circle cx="23.5" cy="176.5" r="3" transform="rotate(0,23.5,176.5)"/><circle cx="23.5" cy="185.5" r="3" transform="rotate(0,23.5,185.5)"/><circle cx="23.5" cy="212.5" r="3" transform="rotate(0,23.5,212.5)"/><circle cx="32.5" cy="95.5" r="3" transform="rotate(0,32.5,95.5)"/><circle cx="32.5" cy="113.5" r="3" transform="rotate(0,32.5,113.5)"/><circle cx="32.5" cy="122.5" r="3" transform="rotate(0,32.5,122.5)"/><circle cx="32.5" cy="140.5" r="3" transform="rotate(0,32.5,140.5)"/><circle cx="32.5" cy="149.5" r="3" transform="rotate(0,32.5,149.5)"/><circle cx="32.5" cy="203.5" r="3" transform="rotate(0,32.5,203.5)"/><circle cx="32.5" cy="212.5" r="3" transform="rotate(0,32.5,212.5)"/><circle cx="41.5" cy="77.5" r="3" transform="rotate(0,41.5,77.5)"/><circle cx="41.5" cy="86.5" r="3" transform="rotate(0,41.5,86.5)"/><circle cx="41.5" cy="104.5" r="3" transform="rotate(0,41.5,104.5)"/><circle cx="41.5" cy="113.5" r="3" transform="rotate(0,41.5,113.5)"/><circle cx="41.5" cy="122.5" r="3" transform="rotate(0,41.5,122.5)"/><circle cx="41.5" cy="140.5" r="3" transform="rotate(0,41.5,140.5)"/><circle cx="41.5" cy="149.5" r="3" transform="rotate(0,41.5,149.5)"/><circle cx="41.5" cy="167.5" r="3" transform="rotate(0,41.5,167.5)"/><circle cx="41.5" cy="176.5" r="3" transform="rotate(0,41.5,176.5)"/><circle cx="41.5" cy="185.5" r="3" transform="rotate(0,41.5,185.5)"/><circle cx="41.5" cy="212.5" r="3" transform="rotate(0,41.5,212.5)"/><circle cx="50.5" cy="95.5" r="3" transform="rotate(0,50.5,95.5)"/><circle cx="50.5" cy="122.5" r="3" transform="rotate(0,50.5,122.5)"/><circle cx="50.5" cy="140.5" r="3" transform="rotate(0,50.5,140.5)"/><circle cx="50.5" cy="158.5" r="3" transform="rotate(0,50.5,158.5)"/><circle cx="50.5" cy="203.5" r="3" transform="rotate(0,50.5,203.5)"/><circle cx="50.5" cy="221.5" r="3" transform="rotate(0,50.5,221.5)"/><circle cx="59.5" cy="77.5" r="3" transform="rotate(0,59.5,77.5)"/><circle cx="59.5" cy="95.5" r="3" transform="rotate(0,59.5,95.5)"/><circle cx="59.5" cy="113.5" r="3" transform="rotate(0,59.5,113.5)"/><circle cx="59.5" cy="131.5" r="3" transform="rotate(0,59.5,131.5)"/><circle cx="59.5" cy="149.5" r="3" transform="rotate(0,59.5,149.5)"/><circle cx="59.5" cy="167.5" r="3" transform="rotate(0,59.5,167.5)"/><circle cx="59.5" cy="185.5" r="3" transform="rotate(0,59.5,185.5)"/><circle cx="59.5" cy="203.5" r="3" transform="rotate(0,59.5,203.5)"/><circle cx="59.5" cy="221.5" r="3" transform="rotate(0,59.5,221.5)"/><circle cx="68.5" cy="77.5" r="3" transform="rotate(0,68.5,77.5)"/><circle cx="68.5" cy="113.5" r="3" transform="rotate(0,68.5,113.5)"/><circle cx="68.5" cy="122.5" r="3" transform="rotate(0,68.5,122.5)"/><circle cx="68.5" cy="131.5" r="3" transform="rotate(0,68.5,131.5)"/><circle cx="68.5" cy="176.5" r="3" transform="rotate(0,68.5,176.5)"/><circle cx="68.5" cy="185.5" r="3" transform="rotate(0,68.5,185.5)"/><circle cx="68.5" cy="212.5" r="3" transform="rotate(0,68.5,212.5)"/><circle cx="77.5" cy="23.5" r="3" transform="rotate(0,77.5,23.5)"/><circle cx="77.5" cy="32.5" r="3" transform="rotate(0,77.5,32.5)"/><circle cx="77.5" cy="59.5" r="3" transform="rotate(0,77.5,59.5)"/><circle cx="77.5" cy="68.5" r="3" transform="rotate(0,77.5,68.5)"/><circle cx="77.5" cy="77.5" r="3" transform="rotate(0,77.5,77.5)"/><circle cx="77.5" cy="86.5" r="3" transform="rotate(0,77.5,86.5)"/><circle cx="77.5" cy="104.5" r="3" transform="rotate(0,77.5,104.5)"/><circle cx="77.5" cy="122.5" r="3" transform="rotate(0,77.5,122.5)"/><circle cx="77.5" cy="140.5" r="3" transform="rotate(0,77.5,140.5)"/><circle cx="77.5" cy="149.5" r="3" transform="rotate(0,77.5,149.5)"/><circle cx="77.5" cy="167.5" r="3" transform="rotate(0,77.5,167.5)"/><circle cx="77.5" cy="176.5" r="3" transform="rotate(0,77.5,176.5)"/><circle cx="77.5" cy="185.5" r="3" transform="rotate(0,77.5,185.5)"/><circle cx="77.5" cy="194.5" r="3" transform="rotate(0,77.5,194.5)"/><circle cx="77.5" cy="221.5" r="3" transform="rotate(0,77.5,221.5)"/><circle cx="77.5" cy="230.5" r="3" transform="rotate(0,77.5,230.5)"/><circle cx="77.5" cy="239.5" r="3" transform="rotate(0,77.5,239.5)"/><circle cx="77.5" cy="257.5" r="3" transform="rotate(0,77.5,257.5)"/><circle cx="86.5" cy="23.5" r="3" transform="rotate(0,86.5,23.5)"/><circle cx="86.5" cy="32.5" r="3" transform="rotate(0,86.5,32.5)"/><circle cx="86.5" cy="50.5" r="3" transform="rotate(0,86.5,50.5)"/><circle cx="86.5" cy="104.5" r="3" transform="rotate(0,86.5,104.5)"/><circle cx="86.5" cy="113.5" r="3" transform="rotate(0,86.5,113.5)"/><circle cx="86.5" cy="122.5" r="3" transform="rotate(0,86.5,122.5)"/><circle cx="86.5" cy="158.5" r="3" transform="rotate(0,86.5,158.5)"/><circle cx="86.5" cy="176.5" r="3" transform="rotate(0,86.5,176.5)"/><circle cx="86.5" cy="212.5" r="3" transform="rotate(0,86.5,212.5)"/><circle cx="86.5" cy="221.5" r="3" transform="rotate(0,86.5,221.5)"/><circle cx="86.5" cy="230.5" r="3" transform="rotate(0,86.5,230.5)"/><circle cx="86.5" cy="239.5" r="3" transform="rotate(0,86.5,239.5)"/><circle cx="86.5" cy="266.5" r="3" transform="rotate(0,86.5,266.5)"/><circle cx="86.5" cy="293.5" r="3" transform="rotate(0,86.5,293.5)"/><circle cx="95.5" cy="5.5" r="3" transform="rotate(0,95.5,5.5)"/><circle cx="95.5" cy="14.5" r="3" transform="rotate(0,95.5,14.5)"/><circle cx="95.5" cy="23.5" r="3" transform="rotate(0,95.5,23.5)"/><circle cx="95.5" cy="50.5" r="3" transform="rotate(0,95.5,50.5)"/><circle cx="95.5" cy="59.5" r="3" transform="rotate(0,95.5,59.5)"/><circle cx="95.5" cy="68.5" r="3" transform="rotate(0,95.5,68.5)"/><circle cx="95.5" cy="86.5" r="3" transform="rotate(0,95.5,86.5)"/><circle cx="95.5" cy="104.5" r="3" transform="rotate(0,95.5,104.5)"/><circle cx="95.5" cy="113.5" r="3" transform="rotate(0,95.5,113.5)"/><circle cx="95.5" cy="185.5" r="3" transform="rotate(0,95.5,185.5)"/><circle cx="95.5" cy="194.5" r="3" transform="rotate(0,95.5,194.5)"/><circle cx="95.5" cy="203.5" r="3" transform="rotate(0,95.5,203.5)"/><circle cx="95.5" cy="212.5" r="3" transform="rotate(0,95.5,212.5)"/><circle cx="95.5" cy="239.5" r="3" transform="rotate(0,95.5,239.5)"/><circle cx="95.5" cy="275.5" r="3" transform="rotate(0,95.5,275.5)"/><circle cx="95.5" cy="284.5" r="3" transform="rotate(0,95.5,284.5)"/><circle cx="95.5" cy="293.5" r="3" transform="rotate(0,95.5,293.5)"/><circle cx="104.5" cy="50.5" r="3" transform="rotate(0,104.5,50.5)"/><circle cx="104.5" cy="86.5" r="3" transform="rotate(0,104.5,86.5)"/><circle cx="104.5" cy="95.5" r="3" transform="rotate(0,104.5,95.5)"/><circle cx="104.5" cy="203.5" r="3" transform="rotate(0,104.5,203.5)"/><circle cx="104.5" cy="221.5" r="3" transform="rotate(0,104.5,221.5)"/><circle cx="104.5" cy="248.5" r="3" transform="rotate(0,104.5,248.5)"/><circle cx="104.5" cy="257.5" r="3" transform="rotate(0,104.5,257.5)"/><circle cx="104.5" cy="266.5" r="3" transform="rotate(0,104.5,266.5)"/><circle cx="113.5" cy="5.5" r="3" transform="rotate(0,113.5,5.5)"/><circle cx="113.5" cy="14.5" r="3" transform="rotate(0,113.5,14.5)"/><circle cx="113.5" cy="32.5" r="3" transform="rotate(0,113.5,32.5)"/><circle cx="113.5" cy="59.5" r="3" transform="rotate(0,113.5,59.5)"/><circle cx="113.5" cy="68.5" r="3" transform="rotate(0,113.5,68.5)"/><circle cx="113.5" cy="77.5" r="3" transform="rotate(0,113.5,77.5)"/><circle cx="113.5" cy="86.5" r="3" transform="rotate(0,113.5,86.5)"/><circle cx="113.5" cy="95.5" r="3" transform="rotate(0,113.5,95.5)"/><circle cx="113.5" cy="203.5" r="3" transform="rotate(0,113.5,203.5)"/><circle cx="113.5" cy="221.5" r="3" transform="rotate(0,113.5,221.5)"/><circle cx="113.5" cy="230.5" r="3" transform="rotate(0,113.5,230.5)"/><circle cx="113.5" cy="248.5" r="3" transform="rotate(0,113.5,248.5)"/><circle cx="113.5" cy="275.5" r="3" transform="rotate(0,113.5,275.5)"/><circle cx="113.5" cy="284.5" r="3" transform="rotate(0,113.5,284.5)"/><circle cx="113.5" cy="293.5" r="3" transform="rotate(0,113.5,293.5)"/><circle cx="122.5" cy="5.5" r="3" transform="rotate(0,122.5,5.5)"/><circle cx="122.5" cy="32.5" r="3" transform="rotate(0,122.5,32.5)"/><circle cx="122.5" cy="41.5" r="3" transform="rotate(0,122.5,41.5)"/><circle cx="122.5" cy="50.5" r="3" transform="rotate(0,122.5,50.5)"/><circle cx="122.5" cy="68.5" r="3" transform="rotate(0,122.5,68.5)"/><circle cx="122.5" cy="77.5" r="3" transform="rotate(0,122.5,77.5)"/><circle cx="122.5" cy="221.5" r="3" transform="rotate(0,122.5,221.5)"/><circle cx="122.5" cy="230.5" r="3" transform="rotate(0,122.5,230.5)"/><circle cx="122.5" cy="248.5" r="3" transform="rotate(0,122.5,248.5)"/><circle cx="122.5" cy="257.5" r="3" transform="rotate(0,122.5,257.5)"/><circle cx="122.5" cy="275.5" r="3" transform="rotate(0,122.5,275.5)"/><circle cx="131.5" cy="14.5" r="3" transform="rotate(0,131.5,14.5)"/><circle cx="131.5" cy="50.5" r="3" transform="rotate(0,131.5,50.5)"/><circle cx="131.5" cy="59.5" r="3" transform="rotate(0,131.5,59.5)"/><circle cx="131.5" cy="68.5" r="3" transform="rotate(0,131.5,68.5)"/><circle cx="131.5" cy="95.5" r="3" transform="rotate(0,131.5,95.5)"/><circle cx="131.5" cy="230.5" r="3" transform="rotate(0,131.5,230.5)"/><circle cx="131.5" cy="275.5" r="3" transform="rotate(0,131.5,275.5)"/><circle cx="140.5" cy="5.5" r="3" transform="rotate(0,140.5,5.5)"/><circle cx="140.5" cy="23.5" r="3" transform="rotate(0,140.5,23.5)"/><circle cx="140.5" cy="32.5" r="3" transform="rotate(0,140.5,32.5)"/><circle cx="140.5" cy="68.5" r="3" transform="rotate(0,140.5,68.5)"/><circle cx="140.5" cy="86.5" r="3" transform="rotate(0,140.5,86.5)"/><circle cx="140.5" cy="95.5" r="3" transform="rotate(0,140.5,95.5)"/><circle cx="140.5" cy="203.5" r="3" transform="rotate(0,140.5,203.5)"/><circle cx="140.5" cy="212.5" r="3" transform="rotate(0,140.5,212.5)"/><circle cx="140.5" cy="230.5" r="3" transform="rotate(0,140.5,230.5)"/><circle cx="140.5" cy="257.5" r="3" transform="rotate(0,140.5,257.5)"/><circle cx="140.5" cy="266.5" r="3" transform="rotate(0,140.5,266.5)"/><circle cx="140.5" cy="293.5" r="3" transform="rotate(0,140.5,293.5)"/><circle cx="149.5" cy="5.5" r="3" transform="rotate(0,149.5,5.5)"/><circle cx="149.5" cy="50.5" r="3" transform="rotate(0,149.5,50.5)"/><circle cx="149.5" cy="59.5" r="3" transform="rotate(0,149.5,59.5)"/><circle cx="149.5" cy="68.5" r="3" transform="rotate(0,149.5,68.5)"/><circle cx="149.5" cy="77.5" r="3" transform="rotate(0,149.5,77.5)"/><circle cx="149.5" cy="221.5" r="3" transform="rotate(0,149.5,221.5)"/><circle cx="149.5" cy="230.5" r="3" transform="rotate(0,149.5,230.5)"/><circle cx="149.5" cy="239.5" r="3" transform="rotate(0,149.5,239.5)"/><circle cx="149.5" cy="248.5" r="3" transform="rotate(0,149.5,248.5)"/><circle cx="149.5" cy="266.5" r="3" transform="rotate(0,149.5,266.5)"/><circle cx="158.5" cy="14.5" r="3" transform="rotate(0,158.5,14.5)"/><circle cx="158.5" cy="41.5" r="3" transform="rotate(0,158.5,41.5)"/><circle cx="158.5" cy="203.5" r="3" transform="rotate(0,158.5,203.5)"/><circle cx="158.5" cy="212.5" r="3" transform="rotate(0,158.5,212.5)"/><circle cx="158.5" cy="230.5" r="3" transform="rotate(0,158.5,230.5)"/><circle cx="158.5" cy="239.5" r="3" transform="rotate(0,158.5,239.5)"/><circle cx="158.5" cy="248.5" r="3" transform="rotate(0,158.5,248.5)"/><circle cx="158.5" cy="257.5" r="3" transform="rotate(0,158.5,257.5)"/><circle cx="158.5" cy="275.5" r="3" transform="rotate(0,158.5,275.5)"/><circle cx="158.5" cy="284.5" r="3" transform="rotate(0,158.5,284.5)"/><circle cx="167.5" cy="14.5" r="3" transform="rotate(0,167.5,14.5)"/><circle cx="167.5" cy="32.5" r="3" transform="rotate(0,167.5,32.5)"/><circle cx="167.5" cy="41.5" r="3" transform="rotate(0,167.5,41.5)"/><circle cx="167.5" cy="50.5" r="3" transform="rotate(0,167.5,50.5)"/><circle cx="167.5" cy="59.5" r="3" transform="rotate(0,167.5,59.5)"/><circle cx="167.5" cy="86.5" r="3" transform="rotate(0,167.5,86.5)"/><circle cx="167.5" cy="203.5" r="3" transform="rotate(0,167.5,203.5)"/><circle cx="167.5" cy="248.5" r="3" transform="rotate(0,167.5,248.5)"/><circle cx="167.5" cy="275.5" r="3" transform="rotate(0,167.5,275.5)"/><circle cx="176.5" cy="41.5" r="3" transform="rotate(0,176.5,41.5)"/><circle cx="176.5" cy="50.5" r="3" transform="rotate(0,176.5,50.5)"/><circle cx="176.5" cy="86.5" r="3" transform="rotate(0,176.5,86.5)"/><circle cx="176.5" cy="203.5" r="3" transform="rotate(0,176.5,203.5)"/><circle cx="176.5" cy="230.5" r="3" transform="rotate(0,176.5,230.5)"/><circle cx="176.5" cy="239.5" r="3" transform="rotate(0,176.5,239.5)"/><circle cx="176.5" cy="257.5" r="3" transform="rotate(0,176.5,257.5)"/><circle cx="176.5" cy="284.5" r="3" transform="rotate(0,176.5,284.5)"/><circle cx="185.5" cy="5.5" r="3" transform="rotate(0,185.5,5.5)"/><circle cx="185.5" cy="23.5" r="3" transform="rotate(0,185.5,23.5)"/><circle cx="185.5" cy="32.5" r="3" transform="rotate(0,185.5,32.5)"/><circle cx="185.5" cy="41.5" r="3" transform="rotate(0,185.5,41.5)"/><circle cx="185.5" cy="59.5" r="3" transform="rotate(0,185.5,59.5)"/><circle cx="185.5" cy="86.5" r="3" transform="rotate(0,185.5,86.5)"/><circle cx="185.5" cy="95.5" r="3" transform="rotate(0,185.5,95.5)"/><circle cx="185.5" cy="230.5" r="3" transform="rotate(0,185.5,230.5)"/><circle cx="185.5" cy="248.5" r="3" transform="rotate(0,185.5,248.5)"/><circle cx="185.5" cy="266.5" r="3" transform="rotate(0,185.5,266.5)"/><circle cx="185.5" cy="275.5" r="3" transform="rotate(0,185.5,275.5)"/><circle cx="185.5" cy="284.5" r="3" transform="rotate(0,185.5,284.5)"/><circle cx="194.5" cy="5.5" r="3" transform="rotate(0,194.5,5.5)"/><circle cx="194.5" cy="86.5" r="3" transform="rotate(0,194.5,86.5)"/><circle cx="194.5" cy="230.5" r="3" transform="rotate(0,194.5,230.5)"/><circle cx="194.5" cy="266.5" r="3" transform="rotate(0,194.5,266.5)"/><circle cx="194.5" cy="275.5" r="3" transform="rotate(0,194.5,275.5)"/><circle cx="194.5" cy="293.5" r="3" transform="rotate(0,194.5,293.5)"/><circle cx="203.5" cy="23.5" r="3" transform="rotate(0,203.5,23.5)"/><circle cx="203.5" cy="32.5" r="3" transform="rotate(0,203.5,32.5)"/><circle cx="203.5" cy="41.5" r="3" transform="rotate(0,203.5,41.5)"/><circle cx="203.5" cy="50.5" r="3" transform="rotate(0,203.5,50.5)"/><circle cx="203.5" cy="59.5" r="3" transform="rotate(0,203.5,59.5)"/><circle cx="203.5" cy="86.5" r="3" transform="rotate(0,203.5,86.5)"/><circle cx="203.5" cy="149.5" r="3" transform="rotate(0,203.5,149.5)"/><circle cx="203.5" cy="167.5" r="3" transform="rotate(0,203.5,167.5)"/><circle cx="203.5" cy="185.5" r="3" transform="rotate(0,203.5,185.5)"/><circle cx="203.5" cy="194.5" r="3" transform="rotate(0,203.5,194.5)"/><circle cx="203.5" cy="203.5" r="3" transform="rotate(0,203.5,203.5)"/><circle cx="203.5" cy="239.5" r="3" transform="rotate(0,203.5,239.5)"/><circle cx="203.5" cy="248.5" r="3" transform="rotate(0,203.5,248.5)"/><circle cx="203.5" cy="293.5" r="3" transform="rotate(0,203.5,293.5)"/><circle cx="212.5" cy="14.5" r="3" transform="rotate(0,212.5,14.5)"/><circle cx="212.5" cy="32.5" r="3" transform="rotate(0,212.5,32.5)"/><circle cx="212.5" cy="77.5" r="3" transform="rotate(0,212.5,77.5)"/><circle cx="212.5" cy="95.5" r="3" transform="rotate(0,212.5,95.5)"/><circle cx="212.5" cy="113.5" r="3" transform="rotate(0,212.5,113.5)"/><circle cx="212.5" cy="131.5" r="3" transform="rotate(0,212.5,131.5)"/><circle cx="212.5" cy="140.5" r="3" transform="rotate(0,212.5,140.5)"/><circle cx="212.5" cy="176.5" r="3" transform="rotate(0,212.5,176.5)"/><circle cx="212.5" cy="212.5" r="3" transform="rotate(0,212.5,212.5)"/><circle cx="212.5" cy="221.5" r="3" transform="rotate(0,212.5,221.5)"/><circle cx="212.5" cy="230.5" r="3" transform="rotate(0,212.5,230.5)"/><circle cx="212.5" cy="248.5" r="3" transform="rotate(0,212.5,248.5)"/><circle cx="221.5" cy="5.5" r="3" transform="rotate(0,221.5,5.5)"/><circle cx="221.5" cy="23.5" r="3" transform="rotate(0,221.5,23.5)"/><circle cx="221.5" cy="41.5" r="3" transform="rotate(0,221.5,41.5)"/><circle cx="221.5" cy="50.5" r="3" transform="rotate(0,221.5,50.5)"/><circle cx="221.5" cy="59.5" r="3" transform="rotate(0,221.5,59.5)"/><circle cx="221.5" cy="68.5" r="3" transform="rotate(0,221.5,68.5)"/><circle cx="221.5" cy="77.5" r="3" transform="rotate(0,221.5,77.5)"/><circle cx="221.5" cy="95.5" r="3" transform="rotate(0,221.5,95.5)"/><circle cx="221.5" cy="113.5" r="3" transform="rotate(0,221.5,113.5)"/><circle cx="221.5" cy="131.5" r="3" transform="rotate(0,221.5,131.5)"/><circle cx="221.5" cy="140.5" r="3" transform="rotate(0,221.5,140.5)"/><circle cx="221.5" cy="158.5" r="3" transform="rotate(0,221.5,158.5)"/><circle cx="221.5" cy="176.5" r="3" transform="rotate(0,221.5,176.5)"/><circle cx="221.5" cy="194.5" r="3" transform="rotate(0,221.5,194.5)"/><circle cx="221.5" cy="203.5" r="3" transform="rotate(0,221.5,203.5)"/><circle cx="221.5" cy="212.5" r="3" transform="rotate(0,221.5,212.5)"/><circle cx="221.5" cy="221.5" r="3" transform="rotate(0,221.5,221.5)"/><circle cx="221.5" cy="230.5" r="3" transform="rotate(0,221.5,230.5)"/><circle cx="221.5" cy="239.5" r="3" transform="rotate(0,221.5,239.5)"/><circle cx="221.5" cy="248.5" r="3" transform="rotate(0,221.5,248.5)"/><circle cx="221.5" cy="257.5" r="3" transform="rotate(0,221.5,257.5)"/><circle cx="221.5" cy="284.5" r="3" transform="rotate(0,221.5,284.5)"/><circle cx="221.5" cy="293.5" r="3" transform="rotate(0,221.5,293.5)"/><circle cx="230.5" cy="77.5" r="3" transform="rotate(0,230.5,77.5)"/><circle cx="230.5" cy="86.5" r="3" transform="rotate(0,230.5,86.5)"/><circle cx="230.5" cy="113.5" r="3" transform="rotate(0,230.5,113.5)"/><circle cx="230.5" cy="122.5" r="3" transform="rotate(0,230.5,122.5)"/><circle cx="230.5" cy="131.5" r="3" transform="rotate(0,230.5,131.5)"/><circle cx="230.5" cy="149.5" r="3" transform="rotate(0,230.5,149.5)"/><circle cx="230.5" cy="158.5" r="3" transform="rotate(0,230.5,158.5)"/><circle cx="230.5" cy="167.5" r="3" transform="rotate(0,230.5,167.5)"/><circle cx="230.5" cy="176.5" r="3" transform="rotate(0,230.5,176.5)"/><circle cx="230.5" cy="185.5" r="3" transform="rotate(0,230.5,185.5)"/><circle cx="230.5" cy="203.5" r="3" transform="rotate(0,230.5,203.5)"/><circle cx="230.5" cy="221.5" r="3" transform="rotate(0,230.5,221.5)"/><circle cx="230.5" cy="257.5" r="3" transform="rotate(0,230.5,257.5)"/><circle cx="230.5" cy="266.5" r="3" transform="rotate(0,230.5,266.5)"/><circle cx="230.5" cy="275.5" r="3" transform="rotate(0,230.5,275.5)"/><circle cx="239.5" cy="77.5" r="3" transform="rotate(0,239.5,77.5)"/><circle cx="239.5" cy="86.5" r="3" transform="rotate(0,239.5,86.5)"/><circle cx="239.5" cy="95.5" r="3" transform="rotate(0,239.5,95.5)"/><circle cx="239.5" cy="203.5" r="3" transform="rotate(0,239.5,203.5)"/><circle cx="239.5" cy="221.5" r="3" transform="rotate(0,239.5,221.5)"/><circle cx="239.5" cy="239.5" r="3" transform="rotate(0,239.5,239.5)"/><circle cx="239.5" cy="257.5" r="3" transform="rotate(0,239.5,257.5)"/><circle cx="239.5" cy="266.5" r="3" transform="rotate(0,239.5,266.5)"/><circle cx="248.5" cy="95.5" r="3" transform="rotate(0,248.5,95.5)"/><circle cx="248.5" cy="104.5" r="3" transform="rotate(0,248.5,104.5)"/><circle cx="248.5" cy="113.5" r="3" transform="rotate(0,248.5,113.5)"/><circle cx="248.5" cy="131.5" r="3" transform="rotate(0,248.5,131.5)"/><circle cx="248.5" cy="140.5" r="3" transform="rotate(0,248.5,140.5)"/><circle cx="248.5" cy="149.5" r="3" transform="rotate(0,248.5,149.5)"/><circle cx="248.5" cy="158.5" r="3" transform="rotate(0,248.5,158.5)"/><circle cx="248.5" cy="185.5" r="3" transform="rotate(0,248.5,185.5)"/><circle cx="248.5" cy="194.5" r="3" transform="rotate(0,248.5,194.5)"/><circle cx="248.5" cy="203.5" r="3" transform="rotate(0,248.5,203.5)"/><circle cx="248.5" cy="212.5" r="3" transform="rotate(0,248.5,212.5)"/><circle cx="248.5" cy="221.5" r="3" transform="rotate(0,248.5,221.5)"/><circle cx="248.5" cy="257.5" r="3" transform="rotate(0,248.5,257.5)"/><circle cx="248.5" cy="266.5" r="3" transform="rotate(0,248.5,266.5)"/><circle cx="248.5" cy="275.5" r="3" transform="rotate(0,248.5,275.5)"/><circle cx="248.5" cy="284.5" r="3" transform="rotate(0,248.5,284.5)"/><circle cx="248.5" cy="293.5" r="3" transform="rotate(0,248.5,293.5)"/><circle cx="257.5" cy="113.5" r="3" transform="rotate(0,257.5,113.5)"/><circle cx="257.5" cy="122.5" r="3" transform="rotate(0,257.5,122.5)"/><circle cx="257.5" cy="131.5" r="3" transform="rotate(0,257.5,131.5)"/><circle cx="257.5" cy="140.5" r="3" transform="rotate(0,257.5,140.5)"/><circle cx="257.5" cy="158.5" r="3" transform="rotate(0,257.5,158.5)"/><circle cx="257.5" cy="185.5" r="3" transform="rotate(0,257.5,185.5)"/><circle cx="257.5" cy="212.5" r="3" transform="rotate(0,257.5,212.5)"/><circle cx="257.5" cy="221.5" r="3" transform="rotate(0,257.5,221.5)"/><circle cx="257.5" cy="230.5" r="3" transform="rotate(0,257.5,230.5)"/><circle cx="257.5" cy="239.5" r="3" transform="rotate(0,257.5,239.5)"/><circle cx="257.5" cy="248.5" r="3" transform="rotate(0,257.5,248.5)"/><circle cx="257.5" cy="257.5" r="3" transform="rotate(0,257.5,257.5)"/><circle cx="257.5" cy="284.5" r="3" transform="rotate(0,257.5,284.5)"/><circle cx="266.5" cy="77.5" r="3" transform="rotate(0,266.5,77.5)"/><circle cx="266.5" cy="104.5" r="3" transform="rotate(0,266.5,104.5)"/><circle cx="266.5" cy="113.5" r="3" transform="rotate(0,266.5,113.5)"/><circle cx="266.5" cy="122.5" r="3" transform="rotate(0,266.5,122.5)"/><circle cx="266.5" cy="158.5" r="3" transform="rotate(0,266.5,158.5)"/><circle cx="266.5" cy="194.5" r="3" transform="rotate(0,266.5,194.5)"/><circle cx="266.5" cy="248.5" r="3" transform="rotate(0,266.5,248.5)"/><circle cx="275.5" cy="77.5" r="3" transform="rotate(0,275.5,77.5)"/><circle cx="275.5" cy="113.5" r="3" transform="rotate(0,275.5,113.5)"/><circle cx="275.5" cy="167.5" r="3" transform="rotate(0,275.5,167.5)"/><circle cx="275.5" cy="176.5" r="3" transform="rotate(0,275.5,176.5)"/><circle cx="275.5" cy="185.5" r="3" transform="rotate(0,275.5,185.5)"/><circle cx="275.5" cy="203.5" r="3" transform="rotate(0,275.5,203.5)"/><circle cx="275.5" cy="212.5" r="3" transform="rotate(0,275.5,212.5)"/><circle cx="275.5" cy="230.5" r="3" transform="rotate(0,275.5,230.5)"/><circle cx="275.5" cy="239.5" r="3" transform="rotate(0,275.5,239.5)"/><circle cx="275.5" cy="266.5" r="3" transform="rotate(0,275.5,266.5)"/><circle cx="275.5" cy="275.5" r="3" transform="rotate(0,275.5,275.5)"/><circle cx="284.5" cy="95.5" r="3" transform="rotate(0,284.5,95.5)"/><circle cx="284.5" cy="104.5" r="3" transform="rotate(0,284.5,104.5)"/><circle cx="284.5" cy="113.5" r="3" transform="rotate(0,284.5,113.5)"/><circle cx="284.5" cy="122.5" r="3" transform="rotate(0,284.5,122.5)"/><circle cx="284.5" cy="140.5" r="3" transform="rotate(0,284.5,140.5)"/><circle cx="284.5" cy="149.5" r="3" transform="rotate(0,284.5,149.5)"/><circle cx="284.5" cy="167.5" r="3" transform="rotate(0,284.5,167.5)"/><circle cx="284.5" cy="176.5" r="3" transform="rotate(0,284.5,176.5)"/><circle cx="284.5" cy="185.5" r="3" transform="rotate(0,284.5,185.5)"/><circle cx="284.5" cy="194.5" r="3" transform="rotate(0,284.5,194.5)"/><circle cx="284.5" cy="212.5" r="3" transform="rotate(0,284.5,212.5)"/><circle cx="284.5" cy="221.5" r="3" transform="rotate(0,284.5,221.5)"/><circle cx="284.5" cy="239.5" r="3" transform="rotate(0,284.5,239.5)"/><circle cx="284.5" cy="266.5" r="3" transform="rotate(0,284.5,266.5)"/><circle cx="284.5" cy="293.5" r="3" transform="rotate(0,284.5,293.5)"/><circle cx="293.5" cy="140.5" r="3" transform="rotate(0,293.5,140.5)"/><circle cx="293.5" cy="149.5" r="3" transform="rotate(0,293.5,149.5)"/><circle cx="293.5" cy="167.5" r="3" transform="rotate(0,293.5,167.5)"/><circle cx="293.5" cy="176.5" r="3" transform="rotate(0,293.5,176.5)"/><circle cx="293.5" cy="230.5" r="3" transform="rotate(0,293.5,230.5)"/><circle cx="293.5" cy="239.5" r="3" transform="rotate(0,293.5,239.5)"/><circle cx="293.5" cy="248.5" r="3" transform="rotate(0,293.5,248.5)"/><circle cx="293.5" cy="257.5" r="3" transform="rotate(0,293.5,257.5)"/><circle cx="293.5" cy="266.5" r="3" transform="rotate(0,293.5,266.5)"/></g><g class="corners-square-color-0-0"><path clip-rule="evenodd" d="M 1 10v 45a 9 9, 0, 0, 0, 9 9h 45a 9 9, 0, 0, 0, 9 -9v -45a 9 9, 0, 0, 0, -9 -9h -45a 9 9, 0, 0, 0, -9 9zM 14.5 10h 36a 4.5 4.5, 0, 0, 1, 4.5 4.5v 36a 4.5 4.5, 0, 0, 1, -4.5 4.5h -36a 4.5 4.5, 0, 0, 1, -4.5 -4.5v -36a 4.5 4.5, 0, 0, 1, 4.5 -4.5z" transform="rotate(0,32.5,32.5)"/></g><g class="corners-dot-color-0-0"><circle cx="23.5" cy="23.5" r="3" transform="rotate(0,23.5,23.5)"/><circle cx="23.5" cy="32.5" r="3" transform="rotate(0,23.5,32.5)"/><circle cx="23.5" cy="41.5" r="3" transform="rotate(0,23.5,41.5)"/><circle cx="32.5" cy="23.5" r="3" transform="rotate(0,32.5,23.5)"/><circle cx="32.5" cy="32.5" r="3" transform="rotate(0,32.5,32.5)"/><circle cx="32.5" cy="41.5" r="3" transform="rotate(0,32.5,41.5)"/><circle cx="41.5" cy="23.5" r="3" transform="rotate(0,41.5,23.5)"/><circle cx="41.5" cy="32.5" r="3" transform="rotate(0,41.5,32.5)"/><circle cx="41.5" cy="41.5" r="3" transform="rotate(0,41.5,41.5)"/></g><g class="corners-square-color-1-0"><path clip-rule="evenodd" d="M 235 10v 45a 9 9, 0, 0, 0, 9 9h 45a 9 9, 0, 0, 0, 9 -9v -45a 9 9, 0, 0, 0, -9 -9h -45a 9 9, 0, 0, 0, -9 9zM 248.5 10h 36a 4.5 4.5, 0, 0, 1, 4.5 4.5v 36a 4.5 4.5, 0, 0, 1, -4.5 4.5h -36a 4.5 4.5, 0, 0, 1, -4.5 -4.5v -36a 4.5 4.5, 0, 0, 1, 4.5 -4.5z" transform="rotate(90,266.5,32.5)"/></g><g class="corners-dot-color-1-0"><circle cx="257.5" cy="23.5" r="3" transform="rotate(0,257.5,23.5)"/><circle cx="257.5" cy="32.5" r="3" transform="rotate(0,257.5,32.5)"/><circle cx="257.5" cy="41.5" r="3" transform="rotate(0,257.5,41.5)"/><circle cx="266.5" cy="23.5" r="3" transform="rotate(0,266.5,23.5)"/><circle cx="266.5" cy="32.5" r="3" transform="rotate(0,266.5,32.5)"/><circle cx="266.5" cy="41.5" r="3" transform="rotate(0,266.5,41.5)"/><circle cx="275.5" cy="23.5" r="3" transform="rotate(0,275.5,23.5)"/><circle cx="275.5" cy="32.5" r="3" transform="rotate(0,275.5,32.5)"/><circle cx="275.5" cy="41.5" r="3" transform="rotate(0,275.5,41.5)"/></g><g class="corners-square-color-0-1"><path clip-rule="evenodd" d="M 1 244v 45a 9 9, 0, 0, 0, 9 9h 45a 9 9, 0, 0, 0, 9 -9v -45a 9 9, 0, 0, 0, -9 -9h -45a 9 9, 0, 0, 0, -9 9zM 14.5 244h 36a 4.5 4.5, 0, 0, 1, 4.5 4.5v 36a 4.5 4.5, 0, 0, 1, -4.5 4.5h -36a 4.5 4.5, 0, 0, 1, -4.5 -4.5v -36a 4.5 4.5, 0, 0, 1, 4.5 -4.5z" transform="rotate(-90,32.5,266.5)"/></g><g class="corners-dot-color-0-1"><circle cx="23.5" cy="257.5" r="3" transform="rotate(0,23.5,257.5)"/><circle cx="23.5" cy="266.5" r="3" transform="rotate(0,23.5,266.5)"/><circle cx="23.5" cy="275.5" r="3" transform="rotate(0,23.5,275.5)"/><circle cx="32.5" cy="257.5" r="3" transform="rotate(0,32.5,257.5)"/><circle cx="32.5" cy="266.5" r="3" transform="rotate(0,32.5,266.5)"/><circle cx="32.5" cy="275.5" r="3" transform="rotate(0,32.5,275.5)"/><circle cx="41.5" cy="257.5" r="3" transform="rotate(0,41.5,257.5)"/><circle cx="41.5" cy="266.5" r="3" transform="rotate(0,41.5,266.5)"/><circle cx="41.5" cy="275.5" r="3" transform="rotate(0,41.5,275.5)"/></g><svg id="telegramLogotype" xmlns="http://www.w3.org/2000/svg" viewBox="0 0 50 50" x="102" y="102" width="95px" height="95px"><path fill="#08C" d="M50 25c0 13.807-11.193 25-25 25S0 38.807 0 25 11.193 0 25 0s25 11.193 25 25Zm-24.104-6.544c-2.432 1.012-7.291 3.105-14.58 6.28-1.183.47-1.803.931-1.86 1.381-.095.761.858 1.06 2.155 1.469.177.055.36.113.547.174 1.277.415 2.994.9 3.886.92.81.017 1.714-.317 2.712-1.002 6.809-4.597 10.324-6.92 10.545-6.97.155-.035.371-.08.517.05.147.13.132.376.117.442-.095.402-3.835 3.88-5.77 5.679-.603.56-1.031.959-1.119 1.05-.196.203-.396.396-.588.58-1.185 1.144-2.075 2.001.05 3.401 1.02.673 1.838 1.23 2.652 1.784.89.606 1.778 1.21 2.927 1.964.292.191.572.39.844.585 1.036.738 1.966 1.402 3.116 1.296.668-.062 1.358-.69 1.709-2.563.828-4.428 2.456-14.02 2.832-17.974a4.413 4.413 0 0 0-.042-.984c-.033-.195-.103-.472-.355-.677-.3-.243-.763-.294-.97-.29-.94.016-2.382.518-9.325 3.405Z"/></svg></svg></g></svg><g transform="translate(190,282)scale(0.83)"><style>
               .small578{
                  fill:#FFFFFF;
                  font-size:30px;
                  font-family: Roboto, sans-serif;
                  }</style><text x="0" y="-7" text-anchor="middle" class="small578">miniclubua</text></g></svg>