<svg id="svgQrWrapper" viewBox="0 0 300 300" xmlns="http://www.w3.org/2000/svg" xmlns:xlink="http://www.w3.org/1999/xlink" width="300" height="300" style="width: 100%; height: 100%; background-color: rgb(255, 255, 255);"><svg fill="#9C3AAF" xmlns="http://www.w3.org/2000/svg" width="300" height="300" viewBox="0 0 300 300"><path d="M55.59,245.23H49.28a5.48,5.48,0,0,0-5.47,5.47v34a5.48,5.48,0,0,0,5.47,5.47h6.31Z"/><path d="M251.65,245.23H125v44.91H251.65a5.49,5.49,0,0,0,5.47-5.47v-34A5.49,5.49,0,0,0,251.65,245.23Z"/><path d="M113.42,235.58H67A8.45,8.45,0,0,0,58.57,244v46.4A8.45,8.45,0,0,0,67,298.88h46.4a8.45,8.45,0,0,0,8.45-8.45V244A8.45,8.45,0,0,0,113.42,235.58Zm-10.78,27.31V285a4,4,0,0,1-3.93,3.93h-17A4,4,0,0,1,77.8,285V250.42a4,4,0,0,1,3.94-3.93h17a4,4,0,0,1,3.93,3.93Z"/><path d="M90.18,282.07a2.57,2.57,0,0,0-2.59,2.59,2.59,2.59,0,1,0,2.59-2.59Z"/><path d="M86.91,252.44h6.53a1.83,1.83,0,0,0,1.82-1.83,1.89,1.89,0,0,0-1.82-1.82H87a1.85,1.85,0,0,0-1.92,1.82A1.83,1.83,0,0,0,86.91,252.44Z"/><polygon points="80.58 280.44 99.67 280.44 99.67 255.12 80.58 254.93 80.58 280.44"/><g transform="translate(45, 11)scale(0.7)" fill="none"><svg width="300" height="300"><style>.background-color{ fill: #fff; }.dot-color{ fill: #9C3AAF; }.corners-square-color-0-0{ fill: #9C3AAF; }.corners-dot-color-0-0{ fill: #9C3AAF; }.corners-square-color-1-0{ fill: #9C3AAF; }.corners-dot-color-1-0{ fill: #9C3AAF; }.corners-square-color-0-1{ fill: #9C3AAF; }.corners-dot-color-0-1{ fill: #9C3AAF; }</style><defs/><g class="dot-color"><circle cx="5.5" cy="95.5" r="3" transform="rotate(0,5.5,95.5)"/><circle cx="5.5" cy="113.5" r="3" transform="rotate(0,5.5,113.5)"/><circle cx="5.5" cy="149.5" r="3" transform="rotate(0,5.5,149.5)"/><circle cx="5.5" cy="185.5" r="3" transform="rotate(0,5.5,185.5)"/><circle cx="5.5" cy="194.5" r="3" transform="rotate(0,5.5,194.5)"/><circle cx="5.5" cy="212.5" r="3" transform="rotate(0,5.5,212.5)"/><circle cx="5.5" cy="221.5" r="3" transform="rotate(0,5.5,221.5)"/><circle cx="14.5" cy="86.5" r="3" transform="rotate(0,14.5,86.5)"/><circle cx="14.5" cy="104.5" r="3" transform="rotate(0,14.5,104.5)"/><circle cx="14.5" cy="149.5" r="3" transform="rotate(0,14.5,149.5)"/><circle cx="14.5" cy="167.5" r="3" transform="rotate(0,14.5,167.5)"/><circle cx="14.5" cy="176.5" r="3" transform="rotate(0,14.5,176.5)"/><circle cx="14.5" cy="185.5" r="3" transform="rotate(0,14.5,185.5)"/><circle cx="14.5" cy="194.5" r="3" transform="rotate(0,14.5,194.5)"/><circle cx="14.5" cy="212.5" r="3" transform="rotate(0,14.5,212.5)"/><circle cx="23.5" cy="95.5" r="3" transform="rotate(0,23.5,95.5)"/><circle cx="23.5" cy="104.5" r="3" transform="rotate(0,23.5,104.5)"/><circle cx="23.5" cy="122.5" r="3" transform="rotate(0,23.5,122.5)"/><circle cx="23.5" cy="149.5" r="3" transform="rotate(0,23.5,149.5)"/><circle cx="23.5" cy="167.5" r="3" transform="rotate(0,23.5,167.5)"/><circle cx="23.5" cy="176.5" r="3" transform="rotate(0,23.5,176.5)"/><circle cx="23.5" cy="185.5" r="3" transform="rotate(0,23.5,185.5)"/><circle cx="23.5" cy="212.5" r="3" transform="rotate(0,23.5,212.5)"/><circle cx="32.5" cy="95.5" r="3" transform="rotate(0,32.5,95.5)"/><circle cx="32.5" cy="113.5" r="3" transform="rotate(0,32.5,113.5)"/><circle cx="32.5" cy="122.5" r="3" transform="rotate(0,32.5,122.5)"/><circle cx="32.5" cy="140.5" r="3" transform="rotate(0,32.5,140.5)"/><circle cx="32.5" cy="149.5" r="3" transform="rotate(0,32.5,149.5)"/><circle cx="32.5" cy="185.5" r="3" transform="rotate(0,32.5,185.5)"/><circle cx="32.5" cy="203.5" r="3" transform="rotate(0,32.5,203.5)"/><circle cx="32.5" cy="212.5" r="3" transform="rotate(0,32.5,212.5)"/><circle cx="41.5" cy="77.5" r="3" transform="rotate(0,41.5,77.5)"/><circle cx="41.5" cy="104.5" r="3" transform="rotate(0,41.5,104.5)"/><circle cx="41.5" cy="113.5" r="3" transform="rotate(0,41.5,113.5)"/><circle cx="41.5" cy="122.5" r="3" transform="rotate(0,41.5,122.5)"/><circle cx="41.5" cy="167.5" r="3" transform="rotate(0,41.5,167.5)"/><circle cx="41.5" cy="185.5" r="3" transform="rotate(0,41.5,185.5)"/><circle cx="41.5" cy="212.5" r="3" transform="rotate(0,41.5,212.5)"/><circle cx="50.5" cy="86.5" r="3" transform="rotate(0,50.5,86.5)"/><circle cx="50.5" cy="95.5" r="3" transform="rotate(0,50.5,95.5)"/><circle cx="50.5" cy="104.5" r="3" transform="rotate(0,50.5,104.5)"/><circle cx="50.5" cy="113.5" r="3" transform="rotate(0,50.5,113.5)"/><circle cx="50.5" cy="122.5" r="3" transform="rotate(0,50.5,122.5)"/><circle cx="50.5" cy="131.5" r="3" transform="rotate(0,50.5,131.5)"/><circle cx="50.5" cy="140.5" r="3" transform="rotate(0,50.5,140.5)"/><circle cx="50.5" cy="149.5" r="3" transform="rotate(0,50.5,149.5)"/><circle cx="50.5" cy="158.5" r="3" transform="rotate(0,50.5,158.5)"/><circle cx="50.5" cy="176.5" r="3" transform="rotate(0,50.5,176.5)"/><circle cx="50.5" cy="221.5" r="3" transform="rotate(0,50.5,221.5)"/><circle cx="59.5" cy="77.5" r="3" transform="rotate(0,59.5,77.5)"/><circle cx="59.5" cy="95.5" r="3" transform="rotate(0,59.5,95.5)"/><circle cx="59.5" cy="113.5" r="3" transform="rotate(0,59.5,113.5)"/><circle cx="59.5" cy="131.5" r="3" transform="rotate(0,59.5,131.5)"/><circle cx="59.5" cy="149.5" r="3" transform="rotate(0,59.5,149.5)"/><circle cx="59.5" cy="167.5" r="3" transform="rotate(0,59.5,167.5)"/><circle cx="59.5" cy="185.5" r="3" transform="rotate(0,59.5,185.5)"/><circle cx="59.5" cy="203.5" r="3" transform="rotate(0,59.5,203.5)"/><circle cx="59.5" cy="221.5" r="3" transform="rotate(0,59.5,221.5)"/><circle cx="68.5" cy="77.5" r="3" transform="rotate(0,68.5,77.5)"/><circle cx="68.5" cy="86.5" r="3" transform="rotate(0,68.5,86.5)"/><circle cx="68.5" cy="113.5" r="3" transform="rotate(0,68.5,113.5)"/><circle cx="68.5" cy="131.5" r="3" transform="rotate(0,68.5,131.5)"/><circle cx="68.5" cy="140.5" r="3" transform="rotate(0,68.5,140.5)"/><circle cx="68.5" cy="149.5" r="3" transform="rotate(0,68.5,149.5)"/><circle cx="68.5" cy="158.5" r="3" transform="rotate(0,68.5,158.5)"/><circle cx="68.5" cy="185.5" r="3" transform="rotate(0,68.5,185.5)"/><circle cx="68.5" cy="203.5" r="3" transform="rotate(0,68.5,203.5)"/><circle cx="68.5" cy="212.5" r="3" transform="rotate(0,68.5,212.5)"/><circle cx="77.5" cy="23.5" r="3" transform="rotate(0,77.5,23.5)"/><circle cx="77.5" cy="32.5" r="3" transform="rotate(0,77.5,32.5)"/><circle cx="77.5" cy="59.5" r="3" transform="rotate(0,77.5,59.5)"/><circle cx="77.5" cy="68.5" r="3" transform="rotate(0,77.5,68.5)"/><circle cx="77.5" cy="77.5" r="3" transform="rotate(0,77.5,77.5)"/><circle cx="77.5" cy="122.5" r="3" transform="rotate(0,77.5,122.5)"/><circle cx="77.5" cy="149.5" r="3" transform="rotate(0,77.5,149.5)"/><circle cx="77.5" cy="158.5" r="3" transform="rotate(0,77.5,158.5)"/><circle cx="77.5" cy="230.5" r="3" transform="rotate(0,77.5,230.5)"/><circle cx="77.5" cy="239.5" r="3" transform="rotate(0,77.5,239.5)"/><circle cx="77.5" cy="257.5" r="3" transform="rotate(0,77.5,257.5)"/><circle cx="86.5" cy="23.5" r="3" transform="rotate(0,86.5,23.5)"/><circle cx="86.5" cy="32.5" r="3" transform="rotate(0,86.5,32.5)"/><circle cx="86.5" cy="50.5" r="3" transform="rotate(0,86.5,50.5)"/><circle cx="86.5" cy="86.5" r="3" transform="rotate(0,86.5,86.5)"/><circle cx="86.5" cy="95.5" r="3" transform="rotate(0,86.5,95.5)"/><circle cx="86.5" cy="104.5" r="3" transform="rotate(0,86.5,104.5)"/><circle cx="86.5" cy="113.5" r="3" transform="rotate(0,86.5,113.5)"/><circle cx="86.5" cy="122.5" r="3" transform="rotate(0,86.5,122.5)"/><circle cx="86.5" cy="140.5" r="3" transform="rotate(0,86.5,140.5)"/><circle cx="86.5" cy="158.5" r="3" transform="rotate(0,86.5,158.5)"/><circle cx="86.5" cy="176.5" r="3" transform="rotate(0,86.5,176.5)"/><circle cx="86.5" cy="212.5" r="3" transform="rotate(0,86.5,212.5)"/><circle cx="86.5" cy="230.5" r="3" transform="rotate(0,86.5,230.5)"/><circle cx="86.5" cy="239.5" r="3" transform="rotate(0,86.5,239.5)"/><circle cx="86.5" cy="266.5" r="3" transform="rotate(0,86.5,266.5)"/><circle cx="86.5" cy="293.5" r="3" transform="rotate(0,86.5,293.5)"/><circle cx="95.5" cy="5.5" r="3" transform="rotate(0,95.5,5.5)"/><circle cx="95.5" cy="14.5" r="3" transform="rotate(0,95.5,14.5)"/><circle cx="95.5" cy="23.5" r="3" transform="rotate(0,95.5,23.5)"/><circle cx="95.5" cy="50.5" r="3" transform="rotate(0,95.5,50.5)"/><circle cx="95.5" cy="59.5" r="3" transform="rotate(0,95.5,59.5)"/><circle cx="95.5" cy="68.5" r="3" transform="rotate(0,95.5,68.5)"/><circle cx="95.5" cy="86.5" r="3" transform="rotate(0,95.5,86.5)"/><circle cx="95.5" cy="95.5" r="3" transform="rotate(0,95.5,95.5)"/><circle cx="95.5" cy="104.5" r="3" transform="rotate(0,95.5,104.5)"/><circle cx="95.5" cy="149.5" r="3" transform="rotate(0,95.5,149.5)"/><circle cx="95.5" cy="158.5" r="3" transform="rotate(0,95.5,158.5)"/><circle cx="95.5" cy="194.5" r="3" transform="rotate(0,95.5,194.5)"/><circle cx="95.5" cy="203.5" r="3" transform="rotate(0,95.5,203.5)"/><circle cx="95.5" cy="212.5" r="3" transform="rotate(0,95.5,212.5)"/><circle cx="95.5" cy="239.5" r="3" transform="rotate(0,95.5,239.5)"/><circle cx="95.5" cy="275.5" r="3" transform="rotate(0,95.5,275.5)"/><circle cx="95.5" cy="284.5" r="3" transform="rotate(0,95.5,284.5)"/><circle cx="95.5" cy="293.5" r="3" transform="rotate(0,95.5,293.5)"/><circle cx="104.5" cy="50.5" r="3" transform="rotate(0,104.5,50.5)"/><circle cx="104.5" cy="203.5" r="3" transform="rotate(0,104.5,203.5)"/><circle cx="104.5" cy="248.5" r="3" transform="rotate(0,104.5,248.5)"/><circle cx="104.5" cy="257.5" r="3" transform="rotate(0,104.5,257.5)"/><circle cx="104.5" cy="266.5" r="3" transform="rotate(0,104.5,266.5)"/><circle cx="113.5" cy="5.5" r="3" transform="rotate(0,113.5,5.5)"/><circle cx="113.5" cy="14.5" r="3" transform="rotate(0,113.5,14.5)"/><circle cx="113.5" cy="32.5" r="3" transform="rotate(0,113.5,32.5)"/><circle cx="113.5" cy="59.5" r="3" transform="rotate(0,113.5,59.5)"/><circle cx="113.5" cy="68.5" r="3" transform="rotate(0,113.5,68.5)"/><circle cx="113.5" cy="203.5" r="3" transform="rotate(0,113.5,203.5)"/><circle cx="113.5" cy="212.5" r="3" transform="rotate(0,113.5,212.5)"/><circle cx="113.5" cy="221.5" r="3" transform="rotate(0,113.5,221.5)"/><circle cx="113.5" cy="230.5" r="3" transform="rotate(0,113.5,230.5)"/><circle cx="113.5" cy="248.5" r="3" transform="rotate(0,113.5,248.5)"/><circle cx="113.5" cy="266.5" r="3" transform="rotate(0,113.5,266.5)"/><circle cx="113.5" cy="275.5" r="3" transform="rotate(0,113.5,275.5)"/><circle cx="113.5" cy="284.5" r="3" transform="rotate(0,113.5,284.5)"/><circle cx="113.5" cy="293.5" r="3" transform="rotate(0,113.5,293.5)"/><circle cx="122.5" cy="5.5" r="3" transform="rotate(0,122.5,5.5)"/><circle cx="122.5" cy="32.5" r="3" transform="rotate(0,122.5,32.5)"/><circle cx="122.5" cy="50.5" r="3" transform="rotate(0,122.5,50.5)"/><circle cx="122.5" cy="95.5" r="3" transform="rotate(0,122.5,95.5)"/><circle cx="122.5" cy="221.5" r="3" transform="rotate(0,122.5,221.5)"/><circle cx="122.5" cy="230.5" r="3" transform="rotate(0,122.5,230.5)"/><circle cx="122.5" cy="248.5" r="3" transform="rotate(0,122.5,248.5)"/><circle cx="122.5" cy="257.5" r="3" transform="rotate(0,122.5,257.5)"/><circle cx="122.5" cy="275.5" r="3" transform="rotate(0,122.5,275.5)"/><circle cx="131.5" cy="5.5" r="3" transform="rotate(0,131.5,5.5)"/><circle cx="131.5" cy="23.5" r="3" transform="rotate(0,131.5,23.5)"/><circle cx="131.5" cy="41.5" r="3" transform="rotate(0,131.5,41.5)"/><circle cx="131.5" cy="59.5" r="3" transform="rotate(0,131.5,59.5)"/><circle cx="131.5" cy="95.5" r="3" transform="rotate(0,131.5,95.5)"/><circle cx="131.5" cy="230.5" r="3" transform="rotate(0,131.5,230.5)"/><circle cx="131.5" cy="239.5" r="3" transform="rotate(0,131.5,239.5)"/><circle cx="131.5" cy="275.5" r="3" transform="rotate(0,131.5,275.5)"/><circle cx="140.5" cy="50.5" r="3" transform="rotate(0,140.5,50.5)"/><circle cx="140.5" cy="77.5" r="3" transform="rotate(0,140.5,77.5)"/><circle cx="140.5" cy="86.5" r="3" transform="rotate(0,140.5,86.5)"/><circle cx="140.5" cy="95.5" r="3" transform="rotate(0,140.5,95.5)"/><circle cx="140.5" cy="203.5" r="3" transform="rotate(0,140.5,203.5)"/><circle cx="140.5" cy="212.5" r="3" transform="rotate(0,140.5,212.5)"/><circle cx="140.5" cy="230.5" r="3" transform="rotate(0,140.5,230.5)"/><circle cx="140.5" cy="257.5" r="3" transform="rotate(0,140.5,257.5)"/><circle cx="140.5" cy="266.5" r="3" transform="rotate(0,140.5,266.5)"/><circle cx="140.5" cy="293.5" r="3" transform="rotate(0,140.5,293.5)"/><circle cx="149.5" cy="14.5" r="3" transform="rotate(0,149.5,14.5)"/><circle cx="149.5" cy="59.5" r="3" transform="rotate(0,149.5,59.5)"/><circle cx="149.5" cy="68.5" r="3" transform="rotate(0,149.5,68.5)"/><circle cx="149.5" cy="221.5" r="3" transform="rotate(0,149.5,221.5)"/><circle cx="149.5" cy="230.5" r="3" transform="rotate(0,149.5,230.5)"/><circle cx="149.5" cy="239.5" r="3" transform="rotate(0,149.5,239.5)"/><circle cx="149.5" cy="266.5" r="3" transform="rotate(0,149.5,266.5)"/><circle cx="158.5" cy="14.5" r="3" transform="rotate(0,158.5,14.5)"/><circle cx="158.5" cy="23.5" r="3" transform="rotate(0,158.5,23.5)"/><circle cx="158.5" cy="32.5" r="3" transform="rotate(0,158.5,32.5)"/><circle cx="158.5" cy="41.5" r="3" transform="rotate(0,158.5,41.5)"/><circle cx="158.5" cy="50.5" r="3" transform="rotate(0,158.5,50.5)"/><circle cx="158.5" cy="68.5" r="3" transform="rotate(0,158.5,68.5)"/><circle cx="158.5" cy="203.5" r="3" transform="rotate(0,158.5,203.5)"/><circle cx="158.5" cy="212.5" r="3" transform="rotate(0,158.5,212.5)"/><circle cx="158.5" cy="230.5" r="3" transform="rotate(0,158.5,230.5)"/><circle cx="158.5" cy="248.5" r="3" transform="rotate(0,158.5,248.5)"/><circle cx="158.5" cy="257.5" r="3" transform="rotate(0,158.5,257.5)"/><circle cx="158.5" cy="275.5" r="3" transform="rotate(0,158.5,275.5)"/><circle cx="158.5" cy="284.5" r="3" transform="rotate(0,158.5,284.5)"/><circle cx="167.5" cy="32.5" r="3" transform="rotate(0,167.5,32.5)"/><circle cx="167.5" cy="50.5" r="3" transform="rotate(0,167.5,50.5)"/><circle cx="167.5" cy="59.5" r="3" transform="rotate(0,167.5,59.5)"/><circle cx="167.5" cy="77.5" r="3" transform="rotate(0,167.5,77.5)"/><circle cx="167.5" cy="86.5" r="3" transform="rotate(0,167.5,86.5)"/><circle cx="167.5" cy="203.5" r="3" transform="rotate(0,167.5,203.5)"/><circle cx="167.5" cy="248.5" r="3" transform="rotate(0,167.5,248.5)"/><circle cx="167.5" cy="275.5" r="3" transform="rotate(0,167.5,275.5)"/><circle cx="176.5" cy="5.5" r="3" transform="rotate(0,176.5,5.5)"/><circle cx="176.5" cy="14.5" r="3" transform="rotate(0,176.5,14.5)"/><circle cx="176.5" cy="32.5" r="3" transform="rotate(0,176.5,32.5)"/><circle cx="176.5" cy="86.5" r="3" transform="rotate(0,176.5,86.5)"/><circle cx="176.5" cy="203.5" r="3" transform="rotate(0,176.5,203.5)"/><circle cx="176.5" cy="230.5" r="3" transform="rotate(0,176.5,230.5)"/><circle cx="176.5" cy="239.5" r="3" transform="rotate(0,176.5,239.5)"/><circle cx="176.5" cy="257.5" r="3" transform="rotate(0,176.5,257.5)"/><circle cx="176.5" cy="293.5" r="3" transform="rotate(0,176.5,293.5)"/><circle cx="185.5" cy="5.5" r="3" transform="rotate(0,185.5,5.5)"/><circle cx="185.5" cy="14.5" r="3" transform="rotate(0,185.5,14.5)"/><circle cx="185.5" cy="32.5" r="3" transform="rotate(0,185.5,32.5)"/><circle cx="185.5" cy="41.5" r="3" transform="rotate(0,185.5,41.5)"/><circle cx="185.5" cy="50.5" r="3" transform="rotate(0,185.5,50.5)"/><circle cx="185.5" cy="59.5" r="3" transform="rotate(0,185.5,59.5)"/><circle cx="185.5" cy="86.5" r="3" transform="rotate(0,185.5,86.5)"/><circle cx="185.5" cy="95.5" r="3" transform="rotate(0,185.5,95.5)"/><circle cx="185.5" cy="230.5" r="3" transform="rotate(0,185.5,230.5)"/><circle cx="185.5" cy="248.5" r="3" transform="rotate(0,185.5,248.5)"/><circle cx="185.5" cy="266.5" r="3" transform="rotate(0,185.5,266.5)"/><circle cx="185.5" cy="275.5" r="3" transform="rotate(0,185.5,275.5)"/><circle cx="194.5" cy="5.5" r="3" transform="rotate(0,194.5,5.5)"/><circle cx="194.5" cy="14.5" r="3" transform="rotate(0,194.5,14.5)"/><circle cx="194.5" cy="50.5" r="3" transform="rotate(0,194.5,50.5)"/><circle cx="194.5" cy="230.5" r="3" transform="rotate(0,194.5,230.5)"/><circle cx="194.5" cy="266.5" r="3" transform="rotate(0,194.5,266.5)"/><circle cx="194.5" cy="275.5" r="3" transform="rotate(0,194.5,275.5)"/><circle cx="194.5" cy="293.5" r="3" transform="rotate(0,194.5,293.5)"/><circle cx="203.5" cy="23.5" r="3" transform="rotate(0,203.5,23.5)"/><circle cx="203.5" cy="32.5" r="3" transform="rotate(0,203.5,32.5)"/><circle cx="203.5" cy="41.5" r="3" transform="rotate(0,203.5,41.5)"/><circle cx="203.5" cy="50.5" r="3" transform="rotate(0,203.5,50.5)"/><circle cx="203.5" cy="59.5" r="3" transform="rotate(0,203.5,59.5)"/><circle cx="203.5" cy="86.5" r="3" transform="rotate(0,203.5,86.5)"/><circle cx="203.5" cy="95.5" r="3" transform="rotate(0,203.5,95.5)"/><circle cx="203.5" cy="122.5" r="3" transform="rotate(0,203.5,122.5)"/><circle cx="203.5" cy="140.5" r="3" transform="rotate(0,203.5,140.5)"/><circle cx="203.5" cy="149.5" r="3" transform="rotate(0,203.5,149.5)"/><circle cx="203.5" cy="167.5" r="3" transform="rotate(0,203.5,167.5)"/><circle cx="203.5" cy="176.5" r="3" transform="rotate(0,203.5,176.5)"/><circle cx="203.5" cy="203.5" r="3" transform="rotate(0,203.5,203.5)"/><circle cx="203.5" cy="239.5" r="3" transform="rotate(0,203.5,239.5)"/><circle cx="203.5" cy="248.5" r="3" transform="rotate(0,203.5,248.5)"/><circle cx="203.5" cy="293.5" r="3" transform="rotate(0,203.5,293.5)"/><circle cx="212.5" cy="14.5" r="3" transform="rotate(0,212.5,14.5)"/><circle cx="212.5" cy="32.5" r="3" transform="rotate(0,212.5,32.5)"/><circle cx="212.5" cy="77.5" r="3" transform="rotate(0,212.5,77.5)"/><circle cx="212.5" cy="95.5" r="3" transform="rotate(0,212.5,95.5)"/><circle cx="212.5" cy="104.5" r="3" transform="rotate(0,212.5,104.5)"/><circle cx="212.5" cy="113.5" r="3" transform="rotate(0,212.5,113.5)"/><circle cx="212.5" cy="122.5" r="3" transform="rotate(0,212.5,122.5)"/><circle cx="212.5" cy="131.5" r="3" transform="rotate(0,212.5,131.5)"/><circle cx="212.5" cy="149.5" r="3" transform="rotate(0,212.5,149.5)"/><circle cx="212.5" cy="176.5" r="3" transform="rotate(0,212.5,176.5)"/><circle cx="212.5" cy="185.5" r="3" transform="rotate(0,212.5,185.5)"/><circle cx="212.5" cy="212.5" r="3" transform="rotate(0,212.5,212.5)"/><circle cx="212.5" cy="221.5" r="3" transform="rotate(0,212.5,221.5)"/><circle cx="212.5" cy="230.5" r="3" transform="rotate(0,212.5,230.5)"/><circle cx="212.5" cy="248.5" r="3" transform="rotate(0,212.5,248.5)"/><circle cx="221.5" cy="5.5" r="3" transform="rotate(0,221.5,5.5)"/><circle cx="221.5" cy="23.5" r="3" transform="rotate(0,221.5,23.5)"/><circle cx="221.5" cy="41.5" r="3" transform="rotate(0,221.5,41.5)"/><circle cx="221.5" cy="50.5" r="3" transform="rotate(0,221.5,50.5)"/><circle cx="221.5" cy="59.5" r="3" transform="rotate(0,221.5,59.5)"/><circle cx="221.5" cy="68.5" r="3" transform="rotate(0,221.5,68.5)"/><circle cx="221.5" cy="77.5" r="3" transform="rotate(0,221.5,77.5)"/><circle cx="221.5" cy="95.5" r="3" transform="rotate(0,221.5,95.5)"/><circle cx="221.5" cy="104.5" r="3" transform="rotate(0,221.5,104.5)"/><circle cx="221.5" cy="113.5" r="3" transform="rotate(0,221.5,113.5)"/><circle cx="221.5" cy="140.5" r="3" transform="rotate(0,221.5,140.5)"/><circle cx="221.5" cy="149.5" r="3" transform="rotate(0,221.5,149.5)"/><circle cx="221.5" cy="158.5" r="3" transform="rotate(0,221.5,158.5)"/><circle cx="221.5" cy="176.5" r="3" transform="rotate(0,221.5,176.5)"/><circle cx="221.5" cy="203.5" r="3" transform="rotate(0,221.5,203.5)"/><circle cx="221.5" cy="212.5" r="3" transform="rotate(0,221.5,212.5)"/><circle cx="221.5" cy="221.5" r="3" transform="rotate(0,221.5,221.5)"/><circle cx="221.5" cy="230.5" r="3" transform="rotate(0,221.5,230.5)"/><circle cx="221.5" cy="239.5" r="3" transform="rotate(0,221.5,239.5)"/><circle cx="221.5" cy="248.5" r="3" transform="rotate(0,221.5,248.5)"/><circle cx="221.5" cy="257.5" r="3" transform="rotate(0,221.5,257.5)"/><circle cx="221.5" cy="284.5" r="3" transform="rotate(0,221.5,284.5)"/><circle cx="221.5" cy="293.5" r="3" transform="rotate(0,221.5,293.5)"/><circle cx="230.5" cy="77.5" r="3" transform="rotate(0,230.5,77.5)"/><circle cx="230.5" cy="95.5" r="3" transform="rotate(0,230.5,95.5)"/><circle cx="230.5" cy="113.5" r="3" transform="rotate(0,230.5,113.5)"/><circle cx="230.5" cy="149.5" r="3" transform="rotate(0,230.5,149.5)"/><circle cx="230.5" cy="203.5" r="3" transform="rotate(0,230.5,203.5)"/><circle cx="230.5" cy="221.5" r="3" transform="rotate(0,230.5,221.5)"/><circle cx="230.5" cy="257.5" r="3" transform="rotate(0,230.5,257.5)"/><circle cx="230.5" cy="266.5" r="3" transform="rotate(0,230.5,266.5)"/><circle cx="239.5" cy="77.5" r="3" transform="rotate(0,239.5,77.5)"/><circle cx="239.5" cy="104.5" r="3" transform="rotate(0,239.5,104.5)"/><circle cx="239.5" cy="113.5" r="3" transform="rotate(0,239.5,113.5)"/><circle cx="239.5" cy="149.5" r="3" transform="rotate(0,239.5,149.5)"/><circle cx="239.5" cy="167.5" r="3" transform="rotate(0,239.5,167.5)"/><circle cx="239.5" cy="185.5" r="3" transform="rotate(0,239.5,185.5)"/><circle cx="239.5" cy="203.5" r="3" transform="rotate(0,239.5,203.5)"/><circle cx="239.5" cy="212.5" r="3" transform="rotate(0,239.5,212.5)"/><circle cx="239.5" cy="221.5" r="3" transform="rotate(0,239.5,221.5)"/><circle cx="239.5" cy="239.5" r="3" transform="rotate(0,239.5,239.5)"/><circle cx="239.5" cy="257.5" r="3" transform="rotate(0,239.5,257.5)"/><circle cx="239.5" cy="266.5" r="3" transform="rotate(0,239.5,266.5)"/><circle cx="248.5" cy="86.5" r="3" transform="rotate(0,248.5,86.5)"/><circle cx="248.5" cy="95.5" r="3" transform="rotate(0,248.5,95.5)"/><circle cx="248.5" cy="122.5" r="3" transform="rotate(0,248.5,122.5)"/><circle cx="248.5" cy="131.5" r="3" transform="rotate(0,248.5,131.5)"/><circle cx="248.5" cy="140.5" r="3" transform="rotate(0,248.5,140.5)"/><circle cx="248.5" cy="149.5" r="3" transform="rotate(0,248.5,149.5)"/><circle cx="248.5" cy="194.5" r="3" transform="rotate(0,248.5,194.5)"/><circle cx="248.5" cy="203.5" r="3" transform="rotate(0,248.5,203.5)"/><circle cx="248.5" cy="221.5" r="3" transform="rotate(0,248.5,221.5)"/><circle cx="248.5" cy="257.5" r="3" transform="rotate(0,248.5,257.5)"/><circle cx="248.5" cy="266.5" r="3" transform="rotate(0,248.5,266.5)"/><circle cx="248.5" cy="275.5" r="3" transform="rotate(0,248.5,275.5)"/><circle cx="248.5" cy="284.5" r="3" transform="rotate(0,248.5,284.5)"/><circle cx="248.5" cy="293.5" r="3" transform="rotate(0,248.5,293.5)"/><circle cx="257.5" cy="86.5" r="3" transform="rotate(0,257.5,86.5)"/><circle cx="257.5" cy="95.5" r="3" transform="rotate(0,257.5,95.5)"/><circle cx="257.5" cy="113.5" r="3" transform="rotate(0,257.5,113.5)"/><circle cx="257.5" cy="122.5" r="3" transform="rotate(0,257.5,122.5)"/><circle cx="257.5" cy="131.5" r="3" transform="rotate(0,257.5,131.5)"/><circle cx="257.5" cy="140.5" r="3" transform="rotate(0,257.5,140.5)"/><circle cx="257.5" cy="158.5" r="3" transform="rotate(0,257.5,158.5)"/><circle cx="257.5" cy="167.5" r="3" transform="rotate(0,257.5,167.5)"/><circle cx="257.5" cy="176.5" r="3" transform="rotate(0,257.5,176.5)"/><circle cx="257.5" cy="185.5" r="3" transform="rotate(0,257.5,185.5)"/><circle cx="257.5" cy="212.5" r="3" transform="rotate(0,257.5,212.5)"/><circle cx="257.5" cy="221.5" r="3" transform="rotate(0,257.5,221.5)"/><circle cx="257.5" cy="230.5" r="3" transform="rotate(0,257.5,230.5)"/><circle cx="257.5" cy="239.5" r="3" transform="rotate(0,257.5,239.5)"/><circle cx="257.5" cy="248.5" r="3" transform="rotate(0,257.5,248.5)"/><circle cx="257.5" cy="257.5" r="3" transform="rotate(0,257.5,257.5)"/><circle cx="257.5" cy="266.5" r="3" transform="rotate(0,257.5,266.5)"/><circle cx="257.5" cy="275.5" r="3" transform="rotate(0,257.5,275.5)"/><circle cx="257.5" cy="284.5" r="3" transform="rotate(0,257.5,284.5)"/><circle cx="266.5" cy="77.5" r="3" transform="rotate(0,266.5,77.5)"/><circle cx="266.5" cy="104.5" r="3" transform="rotate(0,266.5,104.5)"/><circle cx="266.5" cy="113.5" r="3" transform="rotate(0,266.5,113.5)"/><circle cx="266.5" cy="122.5" r="3" transform="rotate(0,266.5,122.5)"/><circle cx="266.5" cy="158.5" r="3" transform="rotate(0,266.5,158.5)"/><circle cx="266.5" cy="194.5" r="3" transform="rotate(0,266.5,194.5)"/><circle cx="266.5" cy="212.5" r="3" transform="rotate(0,266.5,212.5)"/><circle cx="266.5" cy="248.5" r="3" transform="rotate(0,266.5,248.5)"/><circle cx="275.5" cy="77.5" r="3" transform="rotate(0,275.5,77.5)"/><circle cx="275.5" cy="113.5" r="3" transform="rotate(0,275.5,113.5)"/><circle cx="275.5" cy="167.5" r="3" transform="rotate(0,275.5,167.5)"/><circle cx="275.5" cy="176.5" r="3" transform="rotate(0,275.5,176.5)"/><circle cx="275.5" cy="185.5" r="3" transform="rotate(0,275.5,185.5)"/><circle cx="275.5" cy="203.5" r="3" transform="rotate(0,275.5,203.5)"/><circle cx="275.5" cy="230.5" r="3" transform="rotate(0,275.5,230.5)"/><circle cx="275.5" cy="239.5" r="3" transform="rotate(0,275.5,239.5)"/><circle cx="275.5" cy="266.5" r="3" transform="rotate(0,275.5,266.5)"/><circle cx="275.5" cy="275.5" r="3" transform="rotate(0,275.5,275.5)"/><circle cx="284.5" cy="95.5" r="3" transform="rotate(0,284.5,95.5)"/><circle cx="284.5" cy="104.5" r="3" transform="rotate(0,284.5,104.5)"/><circle cx="284.5" cy="113.5" r="3" transform="rotate(0,284.5,113.5)"/><circle cx="284.5" cy="122.5" r="3" transform="rotate(0,284.5,122.5)"/><circle cx="284.5" cy="140.5" r="3" transform="rotate(0,284.5,140.5)"/><circle cx="284.5" cy="149.5" r="3" transform="rotate(0,284.5,149.5)"/><circle cx="284.5" cy="167.5" r="3" transform="rotate(0,284.5,167.5)"/><circle cx="284.5" cy="176.5" r="3" transform="rotate(0,284.5,176.5)"/><circle cx="284.5" cy="185.5" r="3" transform="rotate(0,284.5,185.5)"/><circle cx="284.5" cy="194.5" r="3" transform="rotate(0,284.5,194.5)"/><circle cx="284.5" cy="212.5" r="3" transform="rotate(0,284.5,212.5)"/><circle cx="284.5" cy="221.5" r="3" transform="rotate(0,284.5,221.5)"/><circle cx="284.5" cy="239.5" r="3" transform="rotate(0,284.5,239.5)"/><circle cx="284.5" cy="266.5" r="3" transform="rotate(0,284.5,266.5)"/><circle cx="284.5" cy="293.5" r="3" transform="rotate(0,284.5,293.5)"/><circle cx="293.5" cy="140.5" r="3" transform="rotate(0,293.5,140.5)"/><circle cx="293.5" cy="149.5" r="3" transform="rotate(0,293.5,149.5)"/><circle cx="293.5" cy="167.5" r="3" transform="rotate(0,293.5,167.5)"/><circle cx="293.5" cy="176.5" r="3" transform="rotate(0,293.5,176.5)"/><circle cx="293.5" cy="230.5" r="3" transform="rotate(0,293.5,230.5)"/><circle cx="293.5" cy="239.5" r="3" transform="rotate(0,293.5,239.5)"/><circle cx="293.5" cy="248.5" r="3" transform="rotate(0,293.5,248.5)"/><circle cx="293.5" cy="257.5" r="3" transform="rotate(0,293.5,257.5)"/><circle cx="293.5" cy="266.5" r="3" transform="rotate(0,293.5,266.5)"/></g><g class="corners-square-color-0-0"><path clip-rule="evenodd" d="M 1 10v 45a 9 9, 0, 0, 0, 9 9h 45a 9 9, 0, 0, 0, 9 -9v -45a 9 9, 0, 0, 0, -9 -9h -45a 9 9, 0, 0, 0, -9 9zM 14.5 10h 36a 4.5 4.5, 0, 0, 1, 4.5 4.5v 36a 4.5 4.5, 0, 0, 1, -4.5 4.5h -36a 4.5 4.5, 0, 0, 1, -4.5 -4.5v -36a 4.5 4.5, 0, 0, 1, 4.5 -4.5z" transform="rotate(0,32.5,32.5)"/></g><g class="corners-dot-color-0-0"><circle cx="23.5" cy="23.5" r="3" transform="rotate(0,23.5,23.5)"/><circle cx="23.5" cy="32.5" r="3" transform="rotate(0,23.5,32.5)"/><circle cx="23.5" cy="41.5" r="3" transform="rotate(0,23.5,41.5)"/><circle cx="32.5" cy="23.5" r="3" transform="rotate(0,32.5,23.5)"/><circle cx="32.5" cy="32.5" r="3" transform="rotate(0,32.5,32.5)"/><circle cx="32.5" cy="41.5" r="3" transform="rotate(0,32.5,41.5)"/><circle cx="41.5" cy="23.5" r="3" transform="rotate(0,41.5,23.5)"/><circle cx="41.5" cy="32.5" r="3" transform="rotate(0,41.5,32.5)"/><circle cx="41.5" cy="41.5" r="3" transform="rotate(0,41.5,41.5)"/></g><g class="corners-square-color-1-0"><path clip-rule="evenodd" d="M 235 10v 45a 9 9, 0, 0, 0, 9 9h 45a 9 9, 0, 0, 0, 9 -9v -45a 9 9, 0, 0, 0, -9 -9h -45a 9 9, 0, 0, 0, -9 9zM 248.5 10h 36a 4.5 4.5, 0, 0, 1, 4.5 4.5v 36a 4.5 4.5, 0, 0, 1, -4.5 4.5h -36a 4.5 4.5, 0, 0, 1, -4.5 -4.5v -36a 4.5 4.5, 0, 0, 1, 4.5 -4.5z" transform="rotate(90,266.5,32.5)"/></g><g class="corners-dot-color-1-0"><circle cx="257.5" cy="23.5" r="3" transform="rotate(0,257.5,23.5)"/><circle cx="257.5" cy="32.5" r="3" transform="rotate(0,257.5,32.5)"/><circle cx="257.5" cy="41.5" r="3" transform="rotate(0,257.5,41.5)"/><circle cx="266.5" cy="23.5" r="3" transform="rotate(0,266.5,23.5)"/><circle cx="266.5" cy="32.5" r="3" transform="rotate(0,266.5,32.5)"/><circle cx="266.5" cy="41.5" r="3" transform="rotate(0,266.5,41.5)"/><circle cx="275.5" cy="23.5" r="3" transform="rotate(0,275.5,23.5)"/><circle cx="275.5" cy="32.5" r="3" transform="rotate(0,275.5,32.5)"/><circle cx="275.5" cy="41.5" r="3" transform="rotate(0,275.5,41.5)"/></g><g class="corners-square-color-0-1"><path clip-rule="evenodd" d="M 1 244v 45a 9 9, 0, 0, 0, 9 9h 45a 9 9, 0, 0, 0, 9 -9v -45a 9 9, 0, 0, 0, -9 -9h -45a 9 9, 0, 0, 0, -9 9zM 14.5 244h 36a 4.5 4.5, 0, 0, 1, 4.5 4.5v 36a 4.5 4.5, 0, 0, 1, -4.5 4.5h -36a 4.5 4.5, 0, 0, 1, -4.5 -4.5v -36a 4.5 4.5, 0, 0, 1, 4.5 -4.5z" transform="rotate(-90,32.5,266.5)"/></g><g class="corners-dot-color-0-1"><circle cx="23.5" cy="257.5" r="3" transform="rotate(0,23.5,257.5)"/><circle cx="23.5" cy="266.5" r="3" transform="rotate(0,23.5,266.5)"/><circle cx="23.5" cy="275.5" r="3" transform="rotate(0,23.5,275.5)"/><circle cx="32.5" cy="257.5" r="3" transform="rotate(0,32.5,257.5)"/><circle cx="32.5" cy="266.5" r="3" transform="rotate(0,32.5,266.5)"/><circle cx="32.5" cy="275.5" r="3" transform="rotate(0,32.5,275.5)"/><circle cx="41.5" cy="257.5" r="3" transform="rotate(0,41.5,257.5)"/><circle cx="41.5" cy="266.5" r="3" transform="rotate(0,41.5,266.5)"/><circle cx="41.5" cy="275.5" r="3" transform="rotate(0,41.5,275.5)"/></g><svg id="instagramLogotype" xmlns="http://www.w3.org/2000/svg" viewBox="0 0 51 50" x="102" y="103" width="95px" height="93px"><circle cx="25.5" cy="25" r="25" fill="red"/><rect width="50" height="50" x="0.5" fill="url(#ainst)" rx="15"/><path fill="#fff" d="M26.002 7c-4.753 0-5.35.02-7.216.106-1.863.085-3.135.38-4.248.813a8.57 8.57 0 0 0-3.1 2.018 8.591 8.591 0 0 0-2.02 3.1c-.433 1.113-.729 2.385-.813 4.247C8.522 19.15 8.5 19.747 8.5 24.5s.021 5.348.106 7.214c.085 1.863.38 3.135.813 4.248a8.575 8.575 0 0 0 2.018 3.1 8.57 8.57 0 0 0 3.1 2.02c1.113.432 2.385.727 4.247.813C20.651 41.98 21.247 42 26 42s5.347-.02 7.214-.105c1.863-.086 3.136-.38 4.25-.813a8.562 8.562 0 0 0 3.097-2.02 8.59 8.59 0 0 0 2.02-3.1c.43-1.113.726-2.385.813-4.247.084-1.867.106-2.462.106-7.215s-.022-5.349-.106-7.216c-.087-1.863-.383-3.134-.813-4.247a8.588 8.588 0 0 0-2.02-3.1 8.552 8.552 0 0 0-3.099-2.018c-1.115-.433-2.388-.728-4.25-.813C31.344 7.02 30.75 7 25.995 7h.006Zm-1.57 3.154h1.57c4.672 0 5.226.016 7.071.1 1.706.078 2.633.363 3.25.603a5.412 5.412 0 0 1 2.01 1.309 5.431 5.431 0 0 1 1.31 2.012c.24.616.525 1.543.603 3.249.084 1.845.102 2.399.102 7.07 0 4.67-.018 5.224-.102 7.069-.078 1.706-.363 2.632-.603 3.248a5.41 5.41 0 0 1-1.31 2.01 5.412 5.412 0 0 1-2.01 1.31c-.617.24-1.544.524-3.25.602-1.845.084-2.399.102-7.071.102-4.673 0-5.227-.018-7.072-.102-1.706-.078-2.632-.364-3.25-.603a5.42 5.42 0 0 1-2.012-1.309 5.424 5.424 0 0 1-1.31-2.011c-.24-.617-.525-1.543-.602-3.249-.084-1.845-.1-2.399-.1-7.072 0-4.674.016-5.225.1-7.07.078-1.706.363-2.632.602-3.249.318-.816.697-1.4 1.31-2.012a5.433 5.433 0 0 1 2.013-1.31c.616-.24 1.543-.525 3.25-.603 1.613-.073 2.24-.095 5.5-.099v.005Zm10.911 2.905a2.1 2.1 0 1 0 0 4.201 2.1 2.1 0 0 0 0-4.201Zm-9.341 2.454a8.986 8.986 0 1 0 0 17.972 8.985 8.985 0 0 0 8.985-8.985 8.987 8.987 0 0 0-8.986-8.987Zm0 3.154a5.833 5.833 0 1 1 0 11.667 5.833 5.833 0 0 1 0-11.667Z"/><defs><linearGradient id="ainst" x1="9.875" x2="36.437" y1="0" y2="50" gradientUnits="userSpaceOnUse"><stop stop-color="#405DE6"/><stop offset="0.151" stop-color="#5B51D8"/><stop offset="0.323" stop-color="#833AB4"/><stop offset="0.495" stop-color="#C13584"/><stop offset="0.646" stop-color="#E1306C"/><stop offset="0.802" stop-color="#F77737"/><stop offset="1" stop-color="#FFDC80"/></linearGradient></defs></svg></svg></g></svg><g transform="translate(190,282)scale(0.83)"><style>
               .small707{
                  fill:#ffffff;
                  font-size:18px;
                  font-family: Roboto, sans-serif;
                  }</style><text x="0" y="-11" text-anchor="middle" class="small707">MINI Club Ukraine</text></g></svg>